<svg xmlns="http://www.w3.org/2000/svg" width="700" height="235" viewBox="0 0 700 235" role="img" aria-label="Estatísticas e linguagens de euw3ll no GitHub"><defs><clipPath id="language-bar"><rect x="30" y="151" width="640" height="10" rx="5"/></clipPath></defs><rect width="699" height="234" x="0.5" y="0.5" rx="12" fill="#141321" stroke="#e4e2e2" stroke-opacity="0.18"/><g font-family="-apple-system,BlinkMacSystemFont,'Segoe UI',sans-serif"><text x="30" y="38" fill="#fe428e" font-size="20" font-weight="700">Atividade de euw3ll no GitHub</text><text x="30" y="82" fill="#f8f8f2" font-size="24" font-weight="700">4.698</text><text x="30" y="103" fill="#a9fef7" font-size="12">contribuições / 12 meses</text><text x="190" y="82" fill="#f8f8f2" font-size="24" font-weight="700">374</text><text x="190" y="103" fill="#a9fef7" font-size="12">nos últimos 30 dias</text><text x="340" y="82" fill="#f8f8f2" font-size="24" font-weight="700">270</text><text x="340" y="103" fill="#a9fef7" font-size="12">dias ativos</text><text x="450" y="82" fill="#f8f8f2" font-size="24" font-weight="700">41</text><text x="450" y="103" fill="#a9fef7" font-size="12">maior sequência</text><text x="575" y="82" fill="#f8f8f2" font-size="24" font-weight="700">71</text><text x="575" y="103" fill="#a9fef7" font-size="12">recorde diário</text><text x="30" y="134" fill="#f8f8f2" font-size="12" font-weight="600">Linguagens mais usadas</text><text x="670" y="134" text-anchor="end" fill="#6e5a7e" font-size="10">7 projetos ativos • últimos 90 dias</text><g clip-path="url(#language-bar)"><rect x="30.00" y="151" width="349.30" height="10" fill="#3572A5"/><rect x="379.30" y="151" width="268.95" height="10" fill="#3178c6"/><rect x="648.26" y="151" width="10.24" height="10" fill="#563d7c"/><rect x="658.50" y="151" width="4.67" height="10" fill="#f1e05a"/><rect x="663.17" y="151" width="6.83" height="10" fill="#3a3048"/></g><circle cx="35" cy="190" r="5" fill="#3572A5"/><text x="48" y="195" fill="#f8f8f2" font-size="12" font-weight="600">Python<tspan fill="#a9fef7" font-weight="500">  55%</tspan></text><circle cx="195" cy="190" r="5" fill="#3178c6"/><text x="208" y="195" fill="#f8f8f2" font-size="12" font-weight="600">TypeScript<tspan fill="#a9fef7" font-weight="500">  42%</tspan></text><circle cx="355" cy="190" r="5" fill="#563d7c"/><text x="368" y="195" fill="#f8f8f2" font-size="12" font-weight="600">CSS<tspan fill="#a9fef7" font-weight="500">  2%</tspan></text><circle cx="515" cy="190" r="5" fill="#f1e05a"/><text x="528" y="195" fill="#f8f8f2" font-size="12" font-weight="600">JavaScript<tspan fill="#a9fef7" font-weight="500">  1%</tspan></text><text x="30" y="220" fill="#6e5a7e" font-size="10">Atualizado em 24/08/2026 • fonte: GitHub</text></g></svg>